{"title":"Hearty.Paws.2007.DVDRip.[Eng Subs] ~ cHowZ","uid":5663937,"size":734249435,"categoryP":"video","categoryS":"movies","magnet":"?xt=urn:btih:0684c29d8b20792a914014a87ede3ddea14e3302&amp;dn=Hearty.Paws.2007.DVDRip.%5BEng+Subs%5D+%7E+cHowZ&amp;tr=udp%3A%2F%2Ftracker.openbittorrent.com%3A80&amp;tr=udp%3A%2F%2Fopen.demonii.com%3A1337&amp;tr=udp%3A%2F%2Ftracker.coppersurfer.tk%3A6969&amp;tr=udp%3A%2F%2Fexodus.desync.com%3A6969","seeders":4,"leechers":0,"uploader":"vikkk.","files":2,"time":1278070136,"description":"Movie Name                       : Hearty Paws [2007] (Korean with Eng Subs)\nGenre                            : Drama\nDirector                         : Oh Dal-gyoon\nCast                             : You Seung-ho (Chan)\n                                   Kim Hyang-gi (So-i)\n                                   Dal-I (the dog)\nReleased By                      : GV and Encore Films\nRating                           : PG\nOfficial Website                 : www.encorefilms.com/heartypaws\nOpening Day: 15 March 2007\n\nPlot:\n\nChan, an 11-year-old boy, steals a newly-born puppy for his sister, So-i. She names it Maeum, literally translated as Heart. The dog and she become really tight with each other. They thought that happiness with the new family member would last forever. However, something unexpected happens one day, and the relationship between Chan and Maeum is in ruins. What on earth happened?\n\nGeneral:\n\nFormat                           : AVI\nFormat/Info                      : Audio Video Interleave\nFile size                        : 700 MiB\nDuration                         : 1h 37mn\nOverall bit rate                 : 1 000 Kbps\n\nVideo:\n\nID                               : 0\nFormat                           : MPEG-4 Visual\nFormat profile                   : Advanced Simple@L5\nFormat settings, BVOP            : Yes\nFormat settings, QPel            : No\nFormat settings, GMC             : No warppoints\nFormat settings, Matrix          : Custom\nCodec ID                         : XVID\nCodec ID/Hint                    : XviD\nDuration                         : 1h 37mn\nBit rate                         : 861 Kbps\nWidth                            : 640 pixels\nHeight                           : 272 pixels\nDisplay aspect ratio             : 2.35:1\nFrame rate                       : 23.976 fps\nResolution                       : 8 bits\nColorimetry                      : 4:2:0\nScan type                        : Progressive\nStream size                      : 603 MiB (86%)\n\nAudio:\n\nID                               : 1\nFormat                           : MPEG Audio\nFormat version                   : Version 1\nFormat profile                   : Layer 3\nCodec ID                         : 55\nCodec ID/Hint                    : MP3\nDuration                         : 1h 37mn\nBit rate mode                    : Variable\nBit rate                         : 126 Kbps\nNominal bit rate                 : 128 Kbps\nChannel(s)                       : 2 channels\nSampling rate                    : 48.0 KHz\nStream size                      : 88.2 MiB (13%)\nWriting library                  : LAME3.90.\n\nScreens: &lt;a href=&quot;\nhttp://img266.imageshack.us/img266/9315/heartypawsscreencaps.jpg&quot; rel=&quot;nofollow&quot; target=&quot;_NEW&quot;&gt;\nhttp://img266.imageshack.us/img266/9315/heartypawsscreencaps.jpg&lt;/a&gt;\n\n\n~~~~~~~~PLEASE CONTINUE SEEDING AFTER DOWNLOADING IS COMPLETE~~~~~~~~","torrent":{"xt":"urn:btih:0684c29d8b20792a914014a87ede3ddea14e3302","amp;dn":"Hearty.Paws.2007.DVDRip.%5BEng+Subs%5D+%7E+cHowZ","amp;tr":["udp%3A%2F%2Ftracker.openbittorrent.com%3A80","udp%3A%2F%2Fopen.demonii.com%3A1337","udp%3A%2F%2Ftracker.coppersurfer.tk%3A6969","udp%3A%2F%2Fexodus.desync.com%3A6969"],"infoHash":"0684c29d8b20792a914014a87ede3ddea14e3302","infoHashBuffer":{"type":"Buffer","data":[6,132,194,157,139,32,121,42,145,64,20,168,126,222,61,222,161,78,51,2]},"announce":[],"urlList":[]}}